<?xml version="1.0" standalone="no"?>
<!DOCTYPE svg PUBLIC "-//W3C//DTD SVG 20010904//EN"
 "http://www.w3.org/TR/2001/REC-SVG-20010904/DTD/svg10.dtd">
<svg version="1.0" xmlns="http://www.w3.org/2000/svg"
 width="24.000000pt" height="24.000000pt" viewBox="0 0 24.000000 24.000000"
 preserveAspectRatio="xMidYMid meet">

<g transform="translate(0.000000,24.000000) scale(0.100000,-0.100000)"
fill="#111111" stroke="none">
<path d="M70 223 c-21 -11 -42 -33 -54 -57 -17 -36 -18 -43 -5 -79 18 -52 56
-80 109 -80 54 0 91 28 108 80 11 35 11 46 -2 76 -26 64 -96 91 -156 60z m32
-70 c17 -15 19 -15 38 2 26 24 39 11 15 -15 -17 -19 -17 -21 0 -40 24 -26 11
-39 -15 -15 -19 17 -21 17 -40 0 -26 -24 -39 -11 -15 15 17 19 17 21 2 38 -30
33 -18 45 15 15z"/>
</g>
</svg>
